<?xml version="1.0" standalone="no"?>
<!DOCTYPE svg PUBLIC "-//W3C//DTD SVG 20010904//EN"
 "http://www.w3.org/TR/2001/REC-SVG-20010904/DTD/svg10.dtd">
<svg version="1.0" xmlns="http://www.w3.org/2000/svg"
 width="195.000000pt" height="195.000000pt" viewBox="0 0 195.000000 195.000000"
 preserveAspectRatio="xMidYMid meet">
<metadata>
Created by potrace 1.14, written by Peter Selinger 2001-2017
</metadata>
<g transform="translate(0.000000,195.000000) scale(0.100000,-0.100000)"
fill="#000000" stroke="none">
<path d="M835 1903 c-383 -61 -687 -332 -785 -698 -32 -121 -37 -294 -12 -415
53 -256 191 -465 402 -607 177 -119 406 -176 615 -152 125 13 194 33 311 90
269 128 456 367 516 659 28 134 21 318 -16 443 -50 168 -132 302 -257 423 -91
86 -146 124 -254 175 -124 58 -218 80 -365 84 -69 2 -138 1 -155 -2z m311 -52
c350 -72 627 -352 701 -709 11 -57 14 -110 10 -212 -6 -163 -27 -244 -98 -380
-141 -269 -398 -445 -702 -481 -218 -25 -450 37 -632 172 -61 44 -170 158
-212 219 -150 221 -195 534 -112 784 103 312 368 546 689 611 97 20 250 18
356 -4z"/>
<path d="M977 1667 c-24 -78 -37 -163 -37 -240 0 -86 -10 -85 -68 13 -47 80
-81 122 -139 173 l-37 32 23 -32 c13 -17 21 -36 17 -41 -3 -6 3 -14 15 -17 11
-4 27 -21 34 -39 8 -18 21 -39 30 -46 9 -7 15 -24 13 -36 -2 -13 5 -29 14 -36
10 -7 19 -23 21 -36 2 -12 8 -27 14 -33 6 -6 9 -17 6 -24 -2 -8 4 -18 15 -24
20 -11 37 -55 27 -71 -3 -6 -32 23 -64 63 -71 87 -132 146 -188 181 -46 28
-71 36 -35 10 13 -9 21 -22 18 -29 -3 -8 6 -16 22 -20 15 -4 35 -15 45 -26 10
-10 25 -19 34 -19 10 0 14 -6 10 -19 -3 -14 3 -23 25 -32 16 -6 27 -17 25 -23
-2 -6 5 -15 16 -21 11 -5 18 -13 16 -17 -2 -4 3 -13 12 -20 16 -14 43 -68 33
-68 -4 0 -37 29 -74 64 -87 81 -174 126 -247 126 -34 0 -52 -4 -48 -10 3 -5
15 -10 26 -10 11 0 19 -7 19 -16 0 -8 4 -13 10 -9 15 9 60 -6 60 -21 0 -9 12
-14 35 -14 24 0 35 -5 35 -15 0 -10 10 -15 31 -15 21 0 30 -4 26 -13 -3 -8 7
-18 24 -26 33 -14 40 -36 9 -26 -27 8 -125 -12 -140 -29 -9 -11 -1 -13 45 -10
33 2 55 0 55 -6 0 -5 10 -10 23 -10 13 0 27 -3 31 -7 7 -8 12 -9 38 -12 7 0
-2 -16 -20 -34 -37 -38 -42 -82 -14 -117 l18 -23 23 29 c20 25 22 37 18 84
l-6 55 19 -35 c17 -30 19 -58 20 -203 0 -101 -4 -167 -9 -165 -6 2 -121 144
-256 316 -136 172 -249 311 -252 308 -3 -2 97 -134 222 -291 124 -158 224
-289 222 -291 -3 -4 -442 552 -462 585 -5 10 -4 12 3 7 17 -10 15 -1 -8 41
-19 35 -63 73 -87 73 -21 0 7 -62 43 -97 l33 -31 -40 -56 c-48 -68 -69 -124
-69 -185 1 -40 6 -51 43 -89 l42 -42 1 35 c0 19 4 38 7 42 12 11 117 -110 110
-127 -19 -49 -15 -68 26 -113 l42 -45 -44 -41 c-24 -22 -53 -59 -66 -81 l-22
-40 44 -47 45 -47 16 39 c19 46 81 113 144 156 59 42 56 59 -12 59 -102 0
-112 52 -24 133 29 26 57 47 63 47 6 0 62 -66 125 -146 142 -182 144 -191 70
-284 -27 -34 -50 -66 -50 -70 0 -24 30 -13 62 23 l37 42 1 -57 c0 -58 0 -58
-30 -58 -16 0 -63 5 -105 11 -75 11 -75 11 -75 43 0 53 -4 54 -149 53 l-133
-1 36 -31 c38 -32 38 -45 2 -45 -12 0 -27 -4 -35 -9 -21 -14 32 -37 103 -46
l58 -8 -5 -33 c-5 -32 -4 -34 51 -54 177 -67 476 -68 662 -3 53 19 55 21 52
55 l-2 34 70 11 c70 11 105 27 94 44 -3 5 -18 9 -33 9 -43 0 -45 12 -6 45 l36
30 -134 2 c-131 2 -135 2 -141 -20 -3 -12 -6 -32 -6 -43 0 -19 -9 -23 -75 -33
-42 -6 -89 -11 -105 -11 -30 0 -30 0 -30 62 l0 61 36 -46 c22 -28 41 -44 50
-40 22 8 17 20 -41 93 -48 59 -55 72 -49 96 8 32 228 317 248 322 18 4 126
-100 126 -122 0 -43 -18 -56 -80 -56 -42 0 -60 -4 -60 -13 0 -7 30 -35 66 -62
69 -53 124 -117 124 -146 0 -33 16 -28 59 15 l43 43 -20 39 c-11 22 -39 57
-61 79 -23 21 -41 44 -41 50 0 6 16 26 35 45 36 35 42 60 26 102 -7 20 -1 32
46 82 43 46 57 56 64 45 5 -8 8 -27 6 -42 -4 -28 -3 -27 40 15 24 24 46 52 48
63 9 38 -22 134 -66 201 l-43 67 31 26 c29 25 62 101 42 101 -39 0 -106 -77
-94 -108 3 -8 -10 -34 -30 -57 -41 -51 -46 -69 -9 -34 26 24 26 23 -6 -41 -18
-36 -52 -90 -75 -121 -41 -52 -132 -136 -140 -127 -2 2 41 61 97 131 55 71 98
130 95 133 -2 3 -98 -115 -212 -261 -114 -146 -210 -264 -212 -261 -2 2 107
144 242 316 136 171 245 313 242 316 -2 3 -120 -141 -262 -320 -141 -179 -261
-324 -265 -321 -4 3 -8 81 -9 175 0 168 0 170 25 198 18 19 24 22 20 9 -16
-50 -16 -67 -2 -101 19 -45 43 -46 61 -2 16 39 13 56 -23 104 l-24 32 30 0
c17 0 34 5 37 10 4 6 15 8 26 5 11 -4 19 -2 19 5 0 8 12 10 38 6 l37 -5 -35
15 c-42 19 -95 14 -150 -15 -49 -25 -50 -25 -50 -5 0 9 23 25 57 40 31 14 62
33 68 41 7 9 17 13 22 10 6 -4 14 0 17 9 4 10 14 14 26 11 13 -3 20 0 20 9 0
9 11 14 28 14 15 0 36 7 46 15 11 8 30 15 43 15 13 0 23 4 23 9 0 5 10 12 23
14 12 2 -4 5 -36 6 -92 2 -182 -33 -275 -107 -24 -19 -46 -31 -50 -28 -8 9
159 176 176 176 6 0 12 5 12 11 0 5 13 15 29 20 16 6 31 19 34 30 4 14 14 19
40 19 20 0 40 7 48 17 13 15 11 16 -16 9 -95 -23 -214 -107 -299 -211 -24 -30
-47 -51 -51 -45 -10 16 76 177 105 195 5 3 10 14 10 24 0 10 7 24 15 31 8 7
15 19 15 27 0 8 21 40 48 71 26 31 38 50 27 44 -27 -14 -99 -91 -154 -165 -24
-32 -49 -56 -55 -54 -6 2 -10 23 -9 48 1 24 2 59 2 77 0 17 6 42 12 54 9 16 9
23 0 26 -6 2 -11 12 -11 23 0 10 -5 19 -11 19 -6 0 -3 14 8 33 16 26 17 35 8
44 -10 9 -16 0 -28 -40z m-267 -1289 c74 -16 128 -21 245 -22 141 0 173 4 336
40 26 6 27 4 34 -56 4 -34 5 -63 3 -65 -2 -2 -44 -16 -93 -30 -174 -52 -462
-43 -609 19 -37 15 -38 17 -32 54 3 20 6 47 6 60 0 27 -5 27 110 0z"/>
<path d="M1530 884 l-43 -57 31 -23 c17 -14 40 -40 53 -60 l21 -35 29 33 c37
43 36 58 -6 108 -34 41 -39 52 -36 78 3 21 -5 14 -49 -44z"/>
<path d="M350 918 c0 -9 -15 -35 -34 -57 -51 -60 -53 -76 -17 -116 l30 -34 21
34 c12 19 35 46 52 59 30 23 31 25 15 48 -39 55 -67 83 -67 66z"/>
</g>
</svg>
